<svg width="31" height="34" viewBox="0 0 31 34" fill="none" xmlns="http://www.w3.org/2000/svg">
<path d="M27.5397 10.6156C29.4504 10.6156 30.9993 9.09659 30.9993 7.22282C30.9993 5.34906 29.4504 3.83008 27.5397 3.83008C25.629 3.83008 24.0801 5.34906 24.0801 7.22282C24.0801 9.09659 25.629 10.6156 27.5397 10.6156Z" fill="#F97316"/>
<path d="M17.2757 33.9888V0C12.7566 0.11358 8.46143 1.9539 5.30607 5.12859C2.15071 8.30328 0.384766 12.5612 0.384766 16.9944C0.384766 21.4277 2.15071 25.6856 5.30607 28.8603C8.46143 32.0349 12.7566 33.8753 17.2757 33.9888Z" fill="#2563EB"/>
<path d="M24.1745 17.248C23.8499 18.7805 22.9968 20.1564 21.7588 21.1442C20.5208 22.1319 18.9736 22.6712 17.3776 22.6712C15.7816 22.6712 14.2344 22.1319 12.9964 21.1442C11.7584 20.1564 10.9053 18.7805 10.5807 17.248H3.90332C4.25591 20.5126 5.82794 23.5338 8.31656 25.7295C10.8052 27.9251 14.0343 29.14 17.3819 29.14C20.7294 29.14 23.9586 27.9251 26.4472 25.7295C28.9358 23.5338 30.5079 20.5126 30.8605 17.248H24.1745Z" fill="#93C5FD"/>
</svg>
